<?xml version="1.0" encoding="UTF-8" standalone="no"?>
<svg xmlns:dc="http://purl.org/dc/elements/1.1/"
    xmlns:cc="http://creativecommons.org/ns#"
    xmlns:rdf="http://www.w3.org/1999/02/22-rdf-syntax-ns#"
    xmlns:svg="http://www.w3.org/2000/svg"
    xmlns="http://www.w3.org/2000/svg"
    xmlns:sodipodi="http://sodipodi.sourceforge.net/DTD/sodipodi-0.dtd"
    xmlns:inkscape="http://www.inkscape.org/namespaces/inkscape" width="105.90121mm" height="31.7495mm" version="1.1" viewBox="0 0 105.90122 31.749499" id="svg1026" sodipodi:docname="color-icon-text.svg" inkscape:version="0.92.5 (2060ec1f9f, 2020-04-08)" inkscape:export-filename="/home/matt/Documents/Projects/Contextualize/branding/carta/png/color-icon-text.png" inkscape:export-xdpi="96" inkscape:export-ydpi="96">
    <metadata id="metadata1032">
        <rdf:RDF>
            <cc:Work rdf:about="">
                <dc:format>image/svg+xml</dc:format>
                <dc:type rdf:resource="http://purl.org/dc/dcmitype/StillImage" />
                <dc:title></dc:title>
            </cc:Work>
        </rdf:RDF>
    </metadata>
    <defs id="defs1030" />
    <sodipodi:namedview pagecolor="#ffffff" bordercolor="#666666" borderopacity="1" objecttolerance="10" gridtolerance="10" guidetolerance="10" inkscape:pageopacity="0" inkscape:pageshadow="2" inkscape:window-width="1280" inkscape:window-height="943" id="namedview1028" showgrid="true" inkscape:pagecheckerboard="true" inkscape:snap-nodes="false" inkscape:snap-object-midpoints="true" inkscape:snap-bbox="true" inkscape:bbox-paths="true" inkscape:bbox-nodes="true" inkscape:zoom="0.70916982" inkscape:cx="-24.567737" inkscape:cy="157.64443" inkscape:window-x="0" inkscape:window-y="76" inkscape:window-maximized="1" inkscape:current-layer="g1120">
        <inkscape:grid type="xygrid" id="grid3544" spacingx="2.1166667" spacingy="2.1166667" empspacing="4" originx="44.52012" originy="-0.0010002733" />
    </sodipodi:namedview>
    <g transform="translate(-165.02793,-21.237363)" id="g1024">
        <g id="text" transform="matrix(1.5151,0,0,1.5151,103.11,-400.45)" aria-label="carta" style="stroke-width:0.17463">
            <path d="m 74.783,285.94 v 1.4221 q -0.64492,-0.35553 -1.2981,-0.52916 -0.64492,-0.1819 -1.3064,-0.1819 -1.48,0 -2.2986,0.94257 -0.81856,0.93431 -0.81856,2.6293 0,1.69499 0.81856,2.6376 0.81855,0.93431 2.2986,0.93431 0.66146,0 1.3064,-0.17364 0.65319,-0.1819 1.2981,-0.53743 v 1.4056 q -0.63665,0.29765 -1.3229,0.44648 -0.678,0.14883 -1.4469,0.14883 -2.0919,0 -3.3238,-1.3146 -1.2319,-1.3146 -1.232,-3.5471 0,-2.2655 1.2402,-3.5636 1.2485,-1.2981 3.4148,-1.2981 0.7028,0 1.3725,0.14883 0.66973,0.14056 1.2981,0.42995 z" style="font-variant-ligatures:normal;font-variant-caps:normal;font-variant-numeric:normal;font-feature-settings:normal" id="path1013" inkscape:connector-curvature="0" />
            <path d="m 81.638,290.19 c -1.2292,0 -2.0808,0.14056 -2.5549,0.42168 -0.4741,0.28112 -0.71107,0.76068 -0.71107,1.4387 0,0.54019 0.17639,0.97014 0.52917,1.2898 0.35829,0.31419 0.84336,0.47129 1.4552,0.47129 0.84336,0 1.5186,-0.29766 2.0257,-0.89297 0.51263,-0.60082 0.76895,-1.3973 0.76895,-2.3895 v -0.33899 z m 3.0344,-0.62839 v 5.5232 H 83.151 v -1.6454 c -0.34727,0.56224 -0.77997,0.97841 -1.2981,1.2485 -0.51814,0.26459 -1.152,0.39688 -1.9017,0.39688 -0.94809,0 -1.7033,-0.26458 -2.2655,-0.79375 -0.55673,-0.53468 -0.83509,-1.2485 -0.83509,-2.1415 0,-1.0418 0.34727,-1.8273 1.0418,-2.3564 0.70004,-0.52917 1.7418,-0.79375 3.1254,-0.79375 h 2.1332 v -0.14883 c 0,-0.70004 -0.23151,-1.2402 -0.69453,-1.6206 -0.45751,-0.38585 -1.1024,-0.57877 -1.9348,-0.57877 -0.52917,0 -1.0446,0.0634 -1.5462,0.19016 -0.50161,0.12678 -0.98392,0.31695 -1.4469,0.57051 v -1.4056 c 0.55673,-0.21497 1.0969,-0.37482 1.6206,-0.47955 0.52366,-0.11025 1.0335,-0.16537 1.5296,-0.16537 1.3395,0 2.3399,0.34727 3.0014,1.0418 0.66146,0.69453 0.99219,1.7474 0.99219,3.1585 z" style="font-variant-ligatures:normal;font-variant-caps:normal;font-variant-numeric:normal;font-feature-settings:normal" id="path1015" inkscape:connector-curvature="0" />
            <path d="m 93.172,287.01 c -0.17088,-0.0992 -0.35829,-0.17088 -0.56224,-0.21497 -0.19844,-0.0496 -0.41892,-0.0744 -0.66146,-0.0744 -0.8599,0 -1.5214,0.28112 -1.9844,0.84336 -0.45751,0.55673 -0.68626,1.3588 -0.68626,2.4061 v 5.118 h -1.5296 v -9.7794 h 1.5296 v 1.7179 c 0.3197,-0.56224 0.73587,-0.97841 1.2485,-1.2485 0.51263,-0.27561 1.1355,-0.41341 1.8686,-0.41341 0.10473,0 0.22049,0.008 0.34727,0.0248 0.12678,0.011 0.26734,0.0303 0.42168,0.0579 z" style="font-variant-ligatures:normal;font-variant-caps:normal;font-variant-numeric:normal;font-feature-settings:normal" id="path1017" inkscape:connector-curvature="0" />
            <path d="m 97.86,285.31 h 3.1337 v 1.1824 H 97.86 v 5.5461 c 0,0.75517 0.10198,1.2402 0.30592,1.4552 0.20946,0.21497 0.63114,0.32246 1.265,0.32246 h 1.5627 v 1.2733 h -1.5627 c -1.1741,0 -1.9844,-0.21773 -2.4309,-0.65319 -0.44648,-0.44097 -0.66973,-1.2402 -0.66973,-2.3978 v -5.5461 h -1.1162 v -1.1824 h 1.1162 z" style="font-variant-ligatures:normal;font-variant-caps:normal;font-variant-numeric:normal;font-feature-settings:normal" id="path1019" inkscape:connector-curvature="0" />
            <path d="m 107.73,290.19 c -1.2292,0 -2.0808,0.14056 -2.5549,0.42168 -0.4741,0.28112 -0.71107,0.76068 -0.71107,1.4387 0,0.54019 0.17639,0.97014 0.52917,1.2898 0.35829,0.31419 0.84336,0.47129 1.4552,0.47129 0.84336,0 1.5186,-0.29766 2.0257,-0.89297 0.51263,-0.60082 0.76894,-1.3973 0.76894,-2.3895 v -0.33899 z m 3.0344,-0.62839 v 5.5232 h -1.5214 v -1.6454 c -0.34727,0.56224 -0.77997,0.97841 -1.2981,1.2485 -0.51814,0.26459 -1.152,0.39688 -1.9017,0.39688 -0.94809,0 -1.7033,-0.26458 -2.2655,-0.79375 -0.55673,-0.53468 -0.83509,-1.2485 -0.83509,-2.1415 0,-1.0418 0.34727,-1.8273 1.0418,-2.3564 0.70004,-0.52917 1.7418,-0.79375 3.1254,-0.79375 h 2.1332 v -0.14883 c 0,-0.70004 -0.23151,-1.2402 -0.69453,-1.6206 -0.45751,-0.38585 -1.1024,-0.57877 -1.9348,-0.57877 -0.52917,0 -1.0446,0.0634 -1.5462,0.19016 -0.5016,0.12678 -0.98391,0.31695 -1.4469,0.57051 v -1.4056 c 0.55673,-0.21497 1.0969,-0.37482 1.6206,-0.47955 0.52365,-0.11025 1.0335,-0.16537 1.5296,-0.16537 1.3394,0 2.3399,0.34727 3.0014,1.0418 0.66145,0.69453 0.99218,1.7474 0.99218,3.1585 z" style="font-variant-ligatures:normal;font-variant-caps:normal;font-variant-numeric:normal;font-feature-settings:normal" id="path1021" inkscape:connector-curvature="0" />
        </g>
    </g>
    <g style="shape-rendering:auto" transform="translate(2.92078,-101.969)" id="g1120">
        <path inkscape:connector-curvature="0" id="mono-curve" d="m -0.74828,108.32 c -1.1904,-0.0312 -2.1725,0.9253 -2.1725,2.1162 0,1.1908 0.98203,2.1474 2.1725,2.1161 h 15.875 V 108.32 Z m 22.225,0 v 4.2323 h 1.0583 v 16.934 h -8.4667 v -1.0589 h -4.2323 v 3.176 c 0.0011,1.1677 0.94737,2.1142 2.1151,2.1151 h 12.701 c 1.1677,0 2.1142,-0.94739 2.1151,-2.1151 v -21.168 c -0.0011,-1.1677 -0.94737,-2.1142 -2.1151,-2.1151 z m -22.225,6.3495 c -1.1904,-0.0312 -2.1725,0.92528 -2.1725,2.1161 0,1.1908 0.98203,2.1474 2.1725,2.1162 h 10.584 v 3.1755 h 4.2323 v -5.2927 c -0.0011,-1.1686 -0.94864,-2.1153 -2.1172,-2.1151 z" dominant-baseline="auto" style="color:#000000;font-variant-ligatures:normal;font-variant-position:normal;font-variant-caps:normal;font-variant-numeric:normal;font-variant-alternates:normal;font-feature-settings:normal;text-indent:0;text-decoration:none;text-decoration-line:none;text-decoration-style:solid;text-decoration-color:#000000;text-transform:none;text-orientation:mixed;dominant-baseline:auto;white-space:normal;shape-padding:0;isolation:auto;mix-blend-mode:normal;solid-color:#000000;fill:#535353;color-rendering:auto;image-rendering:auto" />
        <path inkscape:connector-curvature="0" id="color-curve" d="m 5.6007,127.37 c -1.1686,-0.001 -2.1153,-0.94864 -2.1151,-2.1172 v -5.2917 h 4.2328 v 3.1745 h 13.758 v 4.2344 z m 22.226,0 v -4.2344 h 3.2081 c 1.1671,0.003 2.1117,0.95005 2.1117,2.1172 0,1.16715 -0.94453,2.1141 -2.1117,2.1172 z m -9.5245,-6.3495 c -1.1694,1.7e-4 -2.1174,-0.94782 -2.1172,-2.1172 v -12.702 H 7.7183 v 1.0594 H 3.4855 v -3.1745 c -1.701e-4,-1.1686 0.94657,-2.1162 2.1151,-2.1172 h 12.702 c 1.1694,-1.7e-4 2.1174,0.94782 2.1172,2.1172 v 12.699 h 1.0573 v 4.2343 z m 9.5245,0 v -4.2343 h 3.1544 c 1.1712,-0.003 2.1222,0.94594 2.1222,2.1172 0,1.1712 -0.95095,2.12 -2.1222,2.1172 z" dominant-baseline="auto" style="color:#000000;font-variant-ligatures:normal;font-variant-position:normal;font-variant-caps:normal;font-variant-numeric:normal;font-variant-alternates:normal;font-feature-settings:normal;text-indent:0;text-decoration:none;text-decoration-line:none;text-decoration-style:solid;text-decoration-color:#000000;text-transform:none;text-orientation:mixed;dominant-baseline:auto;white-space:normal;shape-padding:0;isolation:auto;mix-blend-mode:normal;solid-color:#000000;fill:#53b853;color-rendering:auto;image-rendering:auto" />
    </g>
</svg>
