<svg width="114.37mm" height="31.749mm" version="1.1" viewBox="0 0 114.37 31.749" xmlns="http://www.w3.org/2000/svg">
 <g transform="translate(-156.56 -21.237)" style="fill:#222">
  <g id="text" transform="matrix(1.5151,0,0,1.5151,103.11,-400.45)" style="fill:#222;stroke-width:.17463" aria-label="carta">
   <path d="m74.783 285.94v1.4221q-0.64492-0.35553-1.2981-0.52916-0.64492-0.1819-1.3064-0.1819-1.48 0-2.2986 0.94257-0.81856 0.93431-0.81856 2.6293t0.81856 2.6376q0.81855 0.93431 2.2986 0.93431 0.66146 0 1.3064-0.17364 0.65319-0.1819 1.2981-0.53743v1.4056q-0.63665 0.29765-1.3229 0.44648-0.678 0.14883-1.4469 0.14883-2.0919 0-3.3238-1.3146t-1.232-3.5471q0-2.2655 1.2402-3.5636 1.2485-1.2981 3.4148-1.2981 0.7028 0 1.3725 0.14883 0.66973 0.14056 1.2981 0.42995z" style="fill:#222;font-feature-settings:normal;font-variant-caps:normal;font-variant-ligatures:normal;font-variant-numeric:normal"/>
   <path d="m81.638 290.19c-1.2292 0-2.0808 0.14056-2.5549 0.42168s-0.71107 0.76068-0.71107 1.4387c0 0.54019 0.17639 0.97014 0.52917 1.2898 0.35829 0.31419 0.84336 0.47129 1.4552 0.47129 0.84336 0 1.5186-0.29766 2.0257-0.89297 0.51263-0.60082 0.76895-1.3973 0.76895-2.3895v-0.33899zm3.0344-0.62839v5.5232h-1.5214v-1.6454c-0.34727 0.56224-0.77997 0.97841-1.2981 1.2485-0.51814 0.26459-1.152 0.39688-1.9017 0.39688-0.94809 0-1.7033-0.26458-2.2655-0.79375-0.55673-0.53468-0.83509-1.2485-0.83509-2.1415 0-1.0418 0.34727-1.8273 1.0418-2.3564 0.70004-0.52917 1.7418-0.79375 3.1254-0.79375h2.1332v-0.14883c0-0.70004-0.23151-1.2402-0.69453-1.6206-0.45751-0.38585-1.1024-0.57877-1.9348-0.57877-0.52917 0-1.0446 0.0634-1.5462 0.19016-0.50161 0.12678-0.98392 0.31695-1.4469 0.57051v-1.4056c0.55673-0.21497 1.0969-0.37482 1.6206-0.47955 0.52366-0.11025 1.0335-0.16537 1.5296-0.16537 1.3395 0 2.3399 0.34727 3.0014 1.0418 0.66146 0.69453 0.99219 1.7474 0.99219 3.1585z" style="fill:#222;font-feature-settings:normal;font-variant-caps:normal;font-variant-ligatures:normal;font-variant-numeric:normal"/>
   <path d="m93.172 287.01c-0.17088-0.0992-0.35829-0.17088-0.56224-0.21497-0.19844-0.0496-0.41892-0.0744-0.66146-0.0744-0.8599 0-1.5214 0.28112-1.9844 0.84336-0.45751 0.55673-0.68626 1.3588-0.68626 2.4061v5.118h-1.5296v-9.7794h1.5296v1.7179c0.3197-0.56224 0.73587-0.97841 1.2485-1.2485 0.51263-0.27561 1.1355-0.41341 1.8686-0.41341 0.10473 0 0.22049 8e-3 0.34727 0.0248 0.12678 0.011 0.26734 0.0303 0.42168 0.0579z" style="fill:#222;font-feature-settings:normal;font-variant-caps:normal;font-variant-ligatures:normal;font-variant-numeric:normal"/>
   <path d="m97.86 285.31h3.1337v1.1824h-3.1337v5.5461c0 0.75517 0.10198 1.2402 0.30592 1.4552 0.20946 0.21497 0.63114 0.32246 1.265 0.32246h1.5627v1.2733h-1.5627c-1.1741 0-1.9844-0.21773-2.4309-0.65319-0.44648-0.44097-0.66973-1.2402-0.66973-2.3978v-5.5461h-1.1162v-1.1824h1.1162z" style="fill:#222;font-feature-settings:normal;font-variant-caps:normal;font-variant-ligatures:normal;font-variant-numeric:normal"/>
   <path d="m107.73 290.19c-1.2292 0-2.0808 0.14056-2.5549 0.42168s-0.71107 0.76068-0.71107 1.4387c0 0.54019 0.17639 0.97014 0.52917 1.2898 0.35829 0.31419 0.84336 0.47129 1.4552 0.47129 0.84336 0 1.5186-0.29766 2.0257-0.89297 0.51263-0.60082 0.76894-1.3973 0.76894-2.3895v-0.33899zm3.0344-0.62839v5.5232h-1.5214v-1.6454c-0.34727 0.56224-0.77997 0.97841-1.2981 1.2485-0.51814 0.26459-1.152 0.39688-1.9017 0.39688-0.94809 0-1.7033-0.26458-2.2655-0.79375-0.55673-0.53468-0.83509-1.2485-0.83509-2.1415 0-1.0418 0.34727-1.8273 1.0418-2.3564 0.70004-0.52917 1.7418-0.79375 3.1254-0.79375h2.1332v-0.14883c0-0.70004-0.23151-1.2402-0.69453-1.6206-0.45751-0.38585-1.1024-0.57877-1.9348-0.57877-0.52917 0-1.0446 0.0634-1.5462 0.19016-0.5016 0.12678-0.98391 0.31695-1.4469 0.57051v-1.4056c0.55673-0.21497 1.0969-0.37482 1.6206-0.47955 0.52365-0.11025 1.0335-0.16537 1.5296-0.16537 1.3394 0 2.3399 0.34727 3.0014 1.0418 0.66145 0.69453 0.99218 1.7474 0.99218 3.1585z" style="fill:#222;font-feature-settings:normal;font-variant-caps:normal;font-variant-ligatures:normal;font-variant-numeric:normal"/>
  </g>
 </g>
 <g transform="translate(2.9208 -101.97)" style="shape-rendering:auto">
  <path id="mono-curve" d="m-0.74828 108.32c-1.1904-0.0312-2.1725 0.9253-2.1725 2.1162 0 1.1908 0.98203 2.1474 2.1725 2.1161h15.875v-4.2323zm22.225 0v4.2323h1.0583v16.934h-8.4667v-1.0589h-4.2323v3.176c0.0011 1.1677 0.94737 2.1142 2.1151 2.1151h12.701c1.1677 0 2.1142-0.94739 2.1151-2.1151v-21.168c-0.0011-1.1677-0.94737-2.1142-2.1151-2.1151zm-22.225 6.3495c-1.1904-0.0312-2.1725 0.92528-2.1725 2.1161 0 1.1908 0.98203 2.1474 2.1725 2.1162h10.584v3.1755h4.2323v-5.2927c-0.0011-1.1686-0.94864-2.1153-2.1172-2.1151z" dominant-baseline="auto" style="color-rendering:auto;color:#000000;dominant-baseline:auto;fill:#535353;font-feature-settings:normal;font-variant-alternates:normal;font-variant-caps:normal;font-variant-ligatures:normal;font-variant-numeric:normal;font-variant-position:normal;image-rendering:auto;isolation:auto;mix-blend-mode:normal;shape-padding:0;solid-color:#000000;text-decoration-color:#000000;text-decoration-line:none;text-decoration-style:solid;text-indent:0;text-orientation:mixed;text-transform:none;white-space:normal"/>
  <path id="color-curve" d="m5.6007 127.37c-1.1686-1e-3 -2.1153-0.94864-2.1151-2.1172v-5.2917h4.2328v3.1745h13.758v4.2344zm22.226 0v-4.2344h3.2081c1.1671 3e-3 2.1117 0.95005 2.1117 2.1172s-0.94453 2.1141-2.1117 2.1172zm-9.5245-6.3495c-1.1694 1.7e-4 -2.1174-0.94782-2.1172-2.1172v-12.702h-8.4667v1.0594h-4.2328v-3.1745c-1.701e-4 -1.1686 0.94657-2.1162 2.1151-2.1172h12.702c1.1694-1.7e-4 2.1174 0.94782 2.1172 2.1172v12.699h1.0573v4.2343zm9.5245 0v-4.2343h3.1544c1.1712-3e-3 2.1222 0.94594 2.1222 2.1172 0 1.1712-0.95095 2.12-2.1222 2.1172z" dominant-baseline="auto" style="color-rendering:auto;color:#000000;dominant-baseline:auto;fill:#53b853;font-feature-settings:normal;font-variant-alternates:normal;font-variant-caps:normal;font-variant-ligatures:normal;font-variant-numeric:normal;font-variant-position:normal;image-rendering:auto;isolation:auto;mix-blend-mode:normal;shape-padding:0;solid-color:#000000;text-decoration-color:#000000;text-decoration-line:none;text-decoration-style:solid;text-indent:0;text-orientation:mixed;text-transform:none;white-space:normal"/>
 </g>
</svg>
