<?xml version="1.0" encoding="UTF-8" standalone="no"?>
<!-- Created with Inkscape (http://www.inkscape.org/) -->

<svg
   xmlns:dc="http://purl.org/dc/elements/1.1/"
   xmlns:cc="http://creativecommons.org/ns#"
   xmlns:rdf="http://www.w3.org/1999/02/22-rdf-syntax-ns#"
   xmlns:svg="http://www.w3.org/2000/svg"
   xmlns="http://www.w3.org/2000/svg"
   xmlns:sodipodi="http://sodipodi.sourceforge.net/DTD/sodipodi-0.dtd"
   xmlns:inkscape="http://www.inkscape.org/namespaces/inkscape"
   width="43.308979mm"
   height="9.7234402mm"
   viewBox="0 0 43.308979 9.7234402"
   version="1.1"
   id="svg1441"
   inkscape:version="0.92.5 (2060ec1f9f, 2020-04-08)"
   sodipodi:docname="carta.svg">
  <defs
     id="defs1435" />
  <sodipodi:namedview
     id="base"
     pagecolor="#ffffff"
     bordercolor="#666666"
     borderopacity="1.0"
     inkscape:pageopacity="0.0"
     inkscape:pageshadow="2"
     inkscape:zoom="3.959798"
     inkscape:cx="75.149572"
     inkscape:cy="14.42053"
     inkscape:document-units="mm"
     inkscape:current-layer="layer1"
     showgrid="false"
     inkscape:pagecheckerboard="false"
     inkscape:window-width="1920"
     inkscape:window-height="972"
     inkscape:window-x="1280"
     inkscape:window-y="27"
     inkscape:window-maximized="1" />
  <metadata
     id="metadata1438">
    <rdf:RDF>
      <cc:Work
         rdf:about="">
        <dc:format>image/svg+xml</dc:format>
        <dc:type
           rdf:resource="http://purl.org/dc/dcmitype/StillImage" />
        <dc:title></dc:title>
      </cc:Work>
    </rdf:RDF>
  </metadata>
  <g
     inkscape:label="Layer 1"
     inkscape:groupmode="layer"
     id="layer1"
     transform="translate(-28.994321,-119.02518)">
    <g
       transform="translate(-38.463381,-166.33729)"
       aria-label="carta"
       inkscape:transform-center-x="2.245064"
       inkscape:transform-center-y="-8.6060788"
       style="font-style:normal;font-weight:normal;font-size:10.58333302px;line-height:1.25;font-family:sans-serif;letter-spacing:0px;word-spacing:0px;display:inline;fill:#000000;fill-opacity:1;stroke:none;stroke-width:0.26458332"
       id="text1380">
      <path
         inkscape:connector-curvature="0"
         d="m 74.783352,285.94125 v 1.42213 q -0.644922,-0.35553 -1.298112,-0.52916 -0.644922,-0.1819 -1.30638,-0.1819 -1.480013,0 -2.298567,0.94257 -0.818555,0.93431 -0.818555,2.6293 0,1.69499 0.818555,2.63757 0.818554,0.93431 2.298567,0.93431 0.661458,0 1.30638,-0.17364 0.65319,-0.1819 1.298112,-0.53743 v 1.4056 q -0.636653,0.29765 -1.322916,0.44648 -0.677995,0.14883 -1.44694,0.14883 -2.091862,0 -3.323828,-1.31465 -1.231966,-1.31465 -1.231966,-3.54707 0,-2.26549 1.240234,-3.56361 1.248502,-1.29811 3.414778,-1.29811 0.7028,0 1.372526,0.14883 0.669727,0.14056 1.298112,0.42995 z"
         style="font-style:normal;font-variant:normal;font-weight:normal;font-stretch:normal;font-size:16.93333244px;font-family:Gubbi;-inkscape-font-specification:'Gubbi, Normal';font-variant-ligatures:normal;font-variant-caps:normal;font-variant-numeric:normal;font-feature-settings:normal;text-align:start;letter-spacing:0.5291667px;writing-mode:lr-tb;text-anchor:start;stroke-width:0.26458332"
         id="path1410" />
      <path
         d="m 81.637713,290.19112 q -1.843815,0 -2.554883,0.42168 -0.711068,0.42168 -0.711068,1.43867 0,0.81029 0.529167,1.28984 0.537435,0.47129 1.455208,0.47129 1.265039,0 2.025716,-0.89297 0.768946,-0.90123 0.768946,-2.38952 v -0.33899 z m 3.03444,-0.62839 v 5.2834 h -1.521354 v -1.4056 q -0.520899,0.84336 -1.298112,1.2485 -0.777214,0.39688 -1.901693,0.39688 -1.422135,0 -2.265495,-0.79375 -0.835091,-0.80202 -0.835091,-2.14147 0,-1.5627 1.041797,-2.35645 1.050065,-0.79375 3.125391,-0.79375 h 2.133203 v -0.14883 q 0,-1.05006 -0.694532,-1.62057 -0.686263,-0.57877 -1.934765,-0.57877 -0.79375,0 -1.546159,0.19016 -0.752409,0.19017 -1.44694,0.57051 v -1.4056 q 0.835091,-0.32246 1.620573,-0.47955 0.785482,-0.16537 1.529622,-0.16537 2.00918,0 3.001367,1.0418 0.992188,1.0418 0.992188,3.15846 z"
         style="font-style:normal;font-variant:normal;font-weight:normal;font-stretch:normal;font-size:16.93333244px;font-family:Gubbi;-inkscape-font-specification:'Gubbi, Normal';font-variant-ligatures:normal;font-variant-caps:normal;font-variant-numeric:normal;font-feature-settings:normal;text-align:start;letter-spacing:0.5291667px;writing-mode:lr-tb;text-anchor:start;stroke-width:0.26458332"
         id="path1412"
         inkscape:connector-curvature="0" />
      <path
         d="m 93.171892,287.00785 q -0.256315,-0.14883 -0.56224,-0.21497 -0.297656,-0.0744 -0.661458,-0.0744 -1.289844,0 -1.984375,0.84336 -0.686263,0.83509 -0.686263,2.40606 v 4.87825 h -1.529622 v -9.26042 h 1.529622 v 1.43868 q 0.479557,-0.84336 1.248503,-1.24851 0.768945,-0.41341 1.868619,-0.41341 0.157097,0 0.347266,0.0248 0.190169,0.0165 0.42168,0.0579 z"
         style="font-style:normal;font-variant:normal;font-weight:normal;font-stretch:normal;font-size:16.93333244px;font-family:Gubbi;-inkscape-font-specification:'Gubbi, Normal';font-variant-ligatures:normal;font-variant-caps:normal;font-variant-numeric:normal;font-feature-settings:normal;text-align:start;letter-spacing:0.5291667px;writing-mode:lr-tb;text-anchor:start;stroke-width:0.26458332"
         id="path1414"
         inkscape:connector-curvature="0" />
      <path
         d="m 97.859978,285.58571 v 0 h 3.133662 v 1.18236 h -3.133662 v 5.02708 c 0,0.75517 0.101975,1.24024 0.305924,1.45521 0.209462,0.21497 0.631142,0.32246 1.265039,0.32246 h 1.562699 v 1.27331 h -1.562699 c -1.174089,0 -1.984375,-0.21773 -2.430859,-0.65319 -0.446485,-0.44097 -0.669727,-1.24024 -0.669727,-2.39779 v -5.02708 h -1.116211 v -1.18236 h 1.116211 v 0 z"
         style="font-style:normal;font-variant:normal;font-weight:normal;font-stretch:normal;font-size:16.93333244px;font-family:Gubbi;-inkscape-font-specification:'Gubbi, Normal';font-variant-ligatures:normal;font-variant-caps:normal;font-variant-numeric:normal;font-feature-settings:normal;text-align:start;letter-spacing:0.5291667px;writing-mode:lr-tb;text-anchor:start;stroke-width:0.26458332"
         id="path1416"
         inkscape:connector-curvature="0"
         sodipodi:nodetypes="cccccscsccscscccccc" />
      <path
         inkscape:connector-curvature="0"
         d="m 107.73224,290.19112 q -1.84381,0 -2.55488,0.42168 -0.71107,0.42168 -0.71107,1.43867 0,0.81029 0.52917,1.28984 0.53744,0.47129 1.45521,0.47129 1.26504,0 2.02572,-0.89297 0.76894,-0.90123 0.76894,-2.38952 v -0.33899 z m 3.03444,-0.62839 v 5.2834 h -1.52135 v -1.4056 q -0.5209,0.84336 -1.29811,1.2485 -0.77721,0.39688 -1.90169,0.39688 -1.42214,0 -2.2655,-0.79375 -0.83509,-0.80202 -0.83509,-2.14147 0,-1.5627 1.0418,-2.35645 1.05006,-0.79375 3.12539,-0.79375 h 2.1332 v -0.14883 q 0,-1.05006 -0.69453,-1.62057 -0.68626,-0.57877 -1.93477,-0.57877 -0.79375,0 -1.54616,0.19016 -0.7524,0.19017 -1.44694,0.57051 v -1.4056 q 0.8351,-0.32246 1.62058,-0.47955 0.78548,-0.16537 1.52962,-0.16537 2.00918,0 3.00137,1.0418 0.99218,1.0418 0.99218,3.15846 z"
         style="font-style:normal;font-variant:normal;font-weight:normal;font-stretch:normal;font-size:16.93333244px;font-family:Gubbi;-inkscape-font-specification:'Gubbi, Normal';font-variant-ligatures:normal;font-variant-caps:normal;font-variant-numeric:normal;font-feature-settings:normal;text-align:start;letter-spacing:0.5291667px;writing-mode:lr-tb;text-anchor:start;stroke-width:0.26458332"
         id="path1418" />
    </g>
  </g>
</svg>
