<?xml version="1.0" encoding="UTF-8"?>
<svg width="128" height="128" version="1.1" viewBox="0 0 33.867 33.867" xmlns="http://www.w3.org/2000/svg">
 <path d="m22.754 25.136h3.175v3.175h-3.175zm-5.2917 0h3.175v3.175h-3.175zm-5.2917 0h3.175v3.175h-3.175zm0-9.7897h16.934v3.175h-16.934zm0-9.7897h12.7v3.175h-12.7zm-5.0264 18.256c-1.5886 0-2.9121 1.3216-2.9121 2.9102s1.3235 2.9102 2.9121 2.9102c1.5886 1e-6 2.9102-1.3216 2.9102-2.9102s-1.3216-2.9102-2.9102-2.9102zm0 2.6465c0.12732 0 0.26367 0.13635 0.26367 0.26367s-0.13635 0.26562-0.26367 0.26562c-0.12732 0-0.26562-0.1383-0.26562-0.26562s0.1383-0.26367 0.26562-0.26367zm0-12.436c-1.5886 0-2.9121 1.3216-2.9121 2.9102s1.3235 2.9102 2.9121 2.9102c1.5886 0 2.9102-1.3216 2.9102-2.9102s-1.3216-2.9102-2.9102-2.9102zm0 2.6445c0.12732 0 0.26367 0.1383 0.26367 0.26562s-0.13635 0.26367-0.26367 0.26367c-0.12732 0-0.26562-0.13635-0.26562-0.26367s0.1383-0.26562 0.26562-0.26562zm0-12.436c-1.5886 0-2.9121 1.3235-2.9121 2.9121 0 1.5886 1.3235 2.9102 2.9121 2.9102 1.5886 0 2.9102-1.3216 2.9102-2.9102 0-1.5886-1.3216-2.9121-2.9102-2.9121zm0 2.6465c0.12732 0 0.26367 0.1383 0.26367 0.26562 0 0.12732-0.13635 0.26367-0.26367 0.26367-0.12732 0-0.26562-0.13635-0.26562-0.26367 0-0.12732 0.1383-0.26562 0.26562-0.26562z" stroke-linecap="square" stroke-width="1.5875"/>
</svg>
