<svg width="128" height="128" version="1.1" viewBox="0 0 33.867 33.867" xmlns="http://www.w3.org/2000/svg">
 <g transform="translate(0 -263.13)">
  <path class="element" d="m14.817 267.37 4.2333-1e-5m-4.2333 25.4 4.2333-1e-5m10.583-14.817v4.2333m-25.4-4.2333v4.2333m25.4 6.35v4.2333h-4.2333m0-25.4h4.2333v4.2333m-25.4 0v-4.2333h4.2333m3.5e-6 25.4h-4.2333v-4.2333" style="fill:none;stroke-linecap:round;stroke-linejoin:round;stroke-width:4.2333;stroke:#000"/>
  <path class="element" d="m14.817 276.4-0.79375-1.3748m-1.1787 3.9453-1.5334-0.41087m1.9563 3.6232-1.3748 0.79375m3.9453 1.1787-0.41088 1.5334m3.6232-1.9563 0.79375 1.3748m1.1787-3.9453 1.5334 0.41087m-1.9563-3.6232 1.3748-0.79375m-3.9453-1.1787 0.41088-1.5334m2.5826 6.7181a4.2333 4.2333 0 0 1-5.1848 2.9934 4.2333 4.2333 0 0 1-2.9934-5.1848 4.2333 4.2333 0 0 1 5.1848-2.9934 4.2333 4.2333 0 0 1 2.9934 5.1848z" style="fill:none;stroke-linecap:round;stroke-width:4.2333;stroke:#000"/>
 </g>
</svg>
