<?xml version="1.0" encoding="UTF-8" standalone="no"?>
<!-- Created with Inkscape (http://www.inkscape.org/) -->

<svg
   xmlns:dc="http://purl.org/dc/elements/1.1/"
   xmlns:cc="http://creativecommons.org/ns#"
   xmlns:rdf="http://www.w3.org/1999/02/22-rdf-syntax-ns#"
   xmlns:svg="http://www.w3.org/2000/svg"
   xmlns="http://www.w3.org/2000/svg"
   xmlns:sodipodi="http://sodipodi.sourceforge.net/DTD/sodipodi-0.dtd"
   xmlns:inkscape="http://www.inkscape.org/namespaces/inkscape"
   width="128"
   height="128"
   viewBox="0 0 33.866666 33.866668"
   version="1.1"
   id="svg8"
   sodipodi:docname="property.svg"
   inkscape:version="0.92.5 (2060ec1f9f, 2020-04-08)">
  <defs
     id="defs2" />
  <sodipodi:namedview
     id="base"
     pagecolor="#ffffff"
     bordercolor="#666666"
     borderopacity="1.0"
     inkscape:pageopacity="0.0"
     inkscape:pageshadow="2"
     inkscape:zoom="3.959798"
     inkscape:cx="45.110002"
     inkscape:cy="63.188381"
     inkscape:document-units="px"
     inkscape:current-layer="layer1"
     showgrid="true"
     inkscape:pagecheckerboard="true"
     units="px"
     inkscape:window-width="1920"
     inkscape:window-height="972"
     inkscape:window-x="1280"
     inkscape:window-y="27"
     inkscape:window-maximized="1"
     inkscape:snap-object-midpoints="false"
     inkscape:snap-bbox="true"
     inkscape:bbox-paths="true"
     inkscape:snap-nodes="false"
     inkscape:bbox-nodes="true">
    <inkscape:grid
       type="xygrid"
       id="grid815"
       spacingx="2.1166667"
       spacingy="2.1166667"
       empspacing="4" />
  </sodipodi:namedview>
  <metadata
     id="metadata5">
    <rdf:RDF>
      <cc:Work
         rdf:about="">
        <dc:format>image/svg+xml</dc:format>
        <dc:type
           rdf:resource="http://purl.org/dc/dcmitype/StillImage" />
        <dc:title></dc:title>
      </cc:Work>
    </rdf:RDF>
  </metadata>
  <g
     inkscape:label="Layer 1"
     inkscape:groupmode="layer"
     id="layer1"
     transform="translate(0,-263.13333)">
    <path
       cx="-2.1166668"
       cy="271.60001"
       rx="2.1166668"
       ry="1.3229166"
       id="path892"
       style="opacity:1;fill:#000000;fill-opacity:1;fill-rule:nonzero;stroke:none;stroke-width:3.17500019;stroke-linecap:square;stroke-linejoin:miter;stroke-miterlimit:4;stroke-dasharray:none;stroke-dashoffset:0;stroke-opacity:1;paint-order:normal" />
    <path
       id="circle1041"
       style="opacity:1;fill:#000000;fill-opacity:1;fill-rule:nonzero;stroke:none;stroke-width:2.11666679;stroke-linecap:round;stroke-linejoin:miter;stroke-miterlimit:4;stroke-dasharray:none;stroke-dashoffset:0;stroke-opacity:1;paint-order:normal"
       d="m 28.521592,280.0665 a 3.175,3.175 0 0 1 -3.175,3.175 3.175,3.175 0 0 1 -3.175,-3.175 3.175,3.175 0 0 1 3.175,-3.175 3.175,3.175 0 0 1 3.175,3.175 z m 0,-6.34998 a 3.175,3.175 0 0 1 -3.175,3.175 3.175,3.175 0 0 1 -3.175,-3.175 3.175,3.175 0 0 1 3.175,-3.175 3.175,3.175 0 0 1 3.175,3.175 z m -8.466667,6.34998 a 3.175,3.175 0 0 1 -3.175,3.175 3.175,3.175 0 0 1 -3.175,-3.175 3.175,3.175 0 0 1 3.175,-3.175 3.175,3.175 0 0 1 3.175,3.175 z m 0,6.35001 a 3.175,3.175 0 0 1 -3.175,3.175 3.175,3.175 0 0 1 -3.175,-3.175 3.175,3.175 0 0 1 3.175,-3.175 3.175,3.175 0 0 1 3.175,3.175 z m -8.466663,0 a 3.175,3.175 0 0 1 -3.1749988,3.175 3.175,3.175 0 0 1 -3.175,-3.175 3.175,3.175 0 0 1 3.175,-3.175 3.175,3.175 0 0 1 3.1749988,3.175 z m 0,-12.69999 a 3.175,3.175 0 0 1 -3.1749988,3.175 3.175,3.175 0 0 1 -3.175,-3.175 3.175,3.175 0 0 1 3.175,-3.175 3.175,3.175 0 0 1 3.1749988,3.175 z m 12.700515,-6.34949 v 2.80241 a 3.7041668,3.7041668 0 0 1 1.057817,-0.15709 3.7041668,3.7041668 0 0 1 1.057299,0.15606 v -2.80138 z m 2.115116,16.24655 a 3.7041668,3.7041668 0 0 1 -1.057299,0.1571 3.7041668,3.7041668 0 0 1 -1.057817,-0.15606 v 9.15293 h 2.115116 z M 15.82211,267.36703 v 9.15241 a 3.7041668,3.7041668 0 0 1 1.057817,-0.15709 3.7041668,3.7041668 0 0 1 1.057299,0.15606 v -9.15138 z m 2.115116,22.59655 a 3.7041668,3.7041668 0 0 1 -1.057299,0.1571 3.7041668,3.7041668 0 0 1 -1.057817,-0.15606 v 2.80293 h 2.115116 z M 7.3554442,267.36703 v 2.80241 a 3.7041668,3.7041668 0 0 1 1.057817,-0.15709 3.7041668,3.7041668 0 0 1 1.0593676,0.15658 v -2.8019 z m 2.1171846,9.89604 a 3.7041668,3.7041668 0 0 1 -1.0593676,0.15761 3.7041668,3.7041668 0 0 1 -1.057817,-0.15606 v 5.60482 a 3.7041668,3.7041668 0 0 1 1.057817,-0.15709 3.7041668,3.7041668 0 0 1 1.0593676,0.15658 z m 0,12.7 a 3.7041668,3.7041668 0 0 1 -1.0593676,0.15761 3.7041668,3.7041668 0 0 1 -1.057817,-0.15606 v 2.80293 h 2.1171846 z m -5.2930926,0.68717 a 2.1168785,2.1168785 0 1 0 0,4.23242 H 29.579926 a 2.1168785,2.1168785 0 1 0 0,-4.23242 z m 0,-25.40039 a 2.1168785,2.1168785 0 1 0 0,4.23242 H 29.579926 a 2.1168785,2.1168785 0 1 0 0,-4.23242 z"
       inkscape:connector-curvature="0"
       class="element" />
  </g>
</svg>
