<?xml version="1.0" encoding="UTF-8"?>
<svg width="128" height="128" version="1.1" viewBox="0 0 33.867 33.867" xmlns="http://www.w3.org/2000/svg">
 <g transform="matrix(.98957 0 0 .95079 -.28732 -.080463)" stroke="#000" stroke-width="1.7029" aria-label="A">
  <g stroke="none">
   <path d="m16.174 17.043h-1.2506q-0.21286 0-0.3459-0.10643-0.12417-0.10643-0.19512-0.26608l-0.99337-2.8027h-4.8072l-0.9845 2.7938q-0.053216 0.15078-0.20399 0.26608-0.14191 0.1153-0.3459 0.1153h-1.2506l4.3726-11.654h1.6408zm-7.1842-4.3282h3.9912l-1.6497-4.6919q-0.08869-0.21286-0.17739-0.49668-0.08869-0.28382-0.16852-0.61198-0.08869 0.33703-0.17739 0.62085-0.08869 0.28382-0.16852 0.49668z" color="#000000" style="-inkscape-stroke:none"/>
   <path d="m9.5801 4.5371-5.0117 13.357h2.4785c0.29308 0 0.62435-0.10445 0.87305-0.30273 0.19999-0.15602 0.38546-0.3773 0.48047-0.64648l0.7832-2.2266h3.6035l0.80469 2.2676 0.01172 0.0293c0.09365 0.21071 0.23827 0.41266 0.41992 0.56836l0.01172 0.0078 0.0098 0.0098c0.26167 0.20933 0.59509 0.29297 0.87891 0.29297h2.4785l-0.43168-1.1504-4.5703-12.207zm1.4063 5.0742 0.79297 2.252h-1.5859z" color="#000000" style="-inkscape-stroke:none"/>
  </g>
 </g>
 <g transform="matrix(1.0337 0 0 .86148 -1.1274 2.0595)" stroke-width="1.8795" aria-label="Z">
  <path d="m28.818 18.205v0.65586q0 0.31325-0.18599 0.58734l-6.0202 10.171h6.0789v1.4488h-8.2325v-0.69502q0-0.14684 0.04894-0.27409 0.04895-0.12726 0.12726-0.24472l6.0104-10.2h-5.8538v-1.4488z" color="#000000" style="-inkscape-stroke:none"/>
  <path d="m19.852 17.266v3.3281h5.1504l-5.1777 8.7832 0.0293-0.04492c-0.08895 0.13343-0.16452 0.27856-0.22266 0.42969-0.07609 0.19786-0.11133 0.40903-0.11133 0.61133v1.6348h10.111v-3.3281h-5.3711l5.1816-8.752-0.03125 0.04883c0.21739-0.32036 0.34766-0.72041 0.34766-1.1152v-1.5957h-0.93945z" color="#000000" style="-inkscape-stroke:none"/>
 </g>
</svg>
