<?xml version="1.0" encoding="UTF-8"?>
<svg width="128" height="128" version="1.1" viewBox="0 0 33.867 33.867" xmlns="http://www.w3.org/2000/svg">
 <g shape-rendering="auto">
  <path d="m16.934 12.7a4.2334 4.2334 0 0 0-0.94207 0.10646 4.2334 4.2334 0 0 0-0.89504 0.31264 4.2334 4.2334 0 0 0-0.80254 0.50437 4.2334 4.2334 0 0 0-0.67025 0.67077 4.2334 4.2334 0 0 0-0.50437 0.80254 4.2334 4.2334 0 0 0-0.31316 0.89453 4.2334 4.2334 0 0 0-0.10594 0.94207 4.2334 4.2334 0 0 0 0.10594 0.94207 4.2334 4.2334 0 0 0 0.31316 0.89504 4.2334 4.2334 0 0 0 0.50437 0.80254 4.2334 4.2334 0 0 0 0.67025 0.67025 4.2334 4.2334 0 0 0 0.80254 0.50437 4.2334 4.2334 0 0 0 0.89504 0.31316 4.2334 4.2334 0 0 0 0.94207 0.10594 4.2334 4.2334 0 0 0 0.94207-0.10594 4.2334 4.2334 0 0 0 0.89453-0.31316 4.2334 4.2334 0 0 0 0.80254-0.50437 4.2334 4.2334 0 0 0 0.67077-0.67025 4.2334 4.2334 0 0 0 0.50437-0.80254 4.2334 4.2334 0 0 0 0.31264-0.89504 4.2334 4.2334 0 0 0 0.10646-0.94207 4.2334 4.2334 0 0 0-0.01292-0.33228 4.2334 4.2334 0 0 0-0.03928-0.3297 4.2334 4.2334 0 0 0-0.06511-0.32608 4.2334 4.2334 0 0 0-0.08992-0.31988 4.2334 4.2334 0 0 0-0.11524-0.31213 4.2334 4.2334 0 0 0-0.13901-0.30179 4.2334 4.2334 0 0 0-0.16227-0.28991 4.2334 4.2334 0 0 0-0.185-0.27647 4.2334 4.2334 0 0 0-0.20567-0.26097 4.2334 4.2334 0 0 0-0.22583-0.24392 4.2334 4.2334 0 0 0-0.24392-0.22583 4.2334 4.2334 0 0 0-0.26097-0.20567 4.2334 4.2334 0 0 0-0.27647-0.185 4.2334 4.2334 0 0 0-0.28991-0.16227 4.2334 4.2334 0 0 0-0.30179-0.13901 4.2334 4.2334 0 0 0-0.31213-0.11524 4.2334 4.2334 0 0 0-0.31988-0.09044 4.2334 4.2334 0 0 0-0.32608-0.0646 4.2334 4.2334 0 0 0-0.3297-0.03927 4.2334 4.2334 0 0 0-0.33228-0.01292z" color="#000000" color-rendering="auto" dominant-baseline="auto" image-rendering="auto" solid-color="#000000" style="font-feature-settings:normal;font-variant-alternates:normal;font-variant-caps:normal;font-variant-ligatures:normal;font-variant-numeric:normal;font-variant-position:normal;isolation:auto;mix-blend-mode:normal;paint-order:normal;shape-padding:0;text-decoration-color:#000000;text-decoration-line:none;text-decoration-style:solid;text-indent:0;text-orientation:mixed;text-transform:none;white-space:normal"/>
  <path d="m16.934 6.3503a10.583 10.583 0 0 0-0.92243 0.040308 10.583 10.583 0 0 0-0.91572 0.12041 10.583 10.583 0 0 0-0.90125 0.19999 10.583 10.583 0 0 0-0.88058 0.27751 10.583 10.583 0 0 0-0.85267 0.35347 10.583 10.583 0 0 0-0.81908 0.42633 10.583 10.583 0 0 0-0.77877 0.4961 10.583 10.583 0 0 0-0.73278 0.56225 10.583 10.583 0 0 0-0.68058 0.62374 10.583 10.583 0 0 0-0.62374 0.68058 10.583 10.583 0 0 0-0.56173 0.73226 10.583 10.583 0 0 0-0.4961 0.77877 10.583 10.583 0 0 0-0.42634 0.81908 10.583 10.583 0 0 0-0.35347 0.85319 10.583 10.583 0 0 0-0.2775 0.88058 10.583 10.583 0 0 0-0.19999 0.90125 10.583 10.583 0 0 0-0.12041 0.9152 10.583 10.583 0 0 0-0.04031 0.92243 10.583 10.583 0 0 0 0.04031 0.92243 10.583 10.583 0 0 0 0.12041 0.91572 10.583 10.583 0 0 0 0.19999 0.90125 10.583 10.583 0 0 0 0.2775 0.88058 10.583 10.583 0 0 0 0.35347 0.85267 10.583 10.583 0 0 0 0.42634 0.81908 10.583 10.583 0 0 0 0.4961 0.77877 10.583 10.583 0 0 0 0.56173 0.73226 10.583 10.583 0 0 0 0.62374 0.6811 10.583 10.583 0 0 0 0.68058 0.62374 10.583 10.583 0 0 0 0.73278 0.56173 10.583 10.583 0 0 0 0.77877 0.4961 10.583 10.583 0 0 0 0.81908 0.42633 10.583 10.583 0 0 0 0.85267 0.35347 10.583 10.583 0 0 0 0.88058 0.27751 10.583 10.583 0 0 0 0.90125 0.19999 10.583 10.583 0 0 0 0.91572 0.12041 10.583 10.583 0 0 0 0.92243 0.04031 10.583 10.583 0 0 0 0.92243-0.04031 10.583 10.583 0 0 0 0.9152-0.12041 10.583 10.583 0 0 0 0.90125-0.19999 10.583 10.583 0 0 0 0.88058-0.27751 10.583 10.583 0 0 0 0.85319-0.35347 10.583 10.583 0 0 0 0.81908-0.42633 10.583 10.583 0 0 0 0.77877-0.4961 10.583 10.583 0 0 0 0.73226-0.56173 10.583 10.583 0 0 0 0.68058-0.62374 10.583 10.583 0 0 0 0.62374-0.6811 10.583 10.583 0 0 0 0.56225-0.73226 10.583 10.583 0 0 0 0.4961-0.77877 10.583 10.583 0 0 0 0.42634-0.81908 10.583 10.583 0 0 0 0.35347-0.85267 10.583 10.583 0 0 0 0.27751-0.88058 10.583 10.583 0 0 0 0.19999-0.90125 10.583 10.583 0 0 0 0.12041-0.91572 10.583 10.583 0 0 0 0.04031-0.92243 10.583 10.583 0 0 0-0.0052-0.31936 10.583 10.583 0 0 0-0.01447-0.31936 10.583 10.583 0 0 0-0.02377-0.31885 10.583 10.583 0 0 0-0.03411-0.31781 10.583 10.583 0 0 0-0.04289-0.31678 10.583 10.583 0 0 0-0.05323-0.31523 10.583 10.583 0 0 0-0.06201-0.31368 10.583 10.583 0 0 0-0.07183-0.31161 10.583 10.583 0 0 0-0.08113-0.30903 10.583 10.583 0 0 0-0.09095-0.30696 10.583 10.583 0 0 0-0.09922-0.30334 10.583 10.583 0 0 0-0.10901-0.30076 10.583 10.583 0 0 0-0.11782-0.29714 10.583 10.583 0 0 0-0.12713-0.29352 10.583 10.583 0 0 0-0.13539-0.28939 10.583 10.583 0 0 0-0.14418-0.28526 10.583 10.583 0 0 0-0.15296-0.28112 10.583 10.583 0 0 0-0.16123-0.27596 10.583 10.583 0 0 0-0.1695-0.27079 10.583 10.583 0 0 0-0.17777-0.26614 10.583 10.583 0 0 0-0.18552-0.26045 10.583 10.583 0 0 0-0.19327-0.25425 10.583 10.583 0 0 0-0.20102-0.24857 10.583 10.583 0 0 0-0.20826-0.24288 10.583 10.583 0 0 0-0.21549-0.23565 10.583 10.583 0 0 0-0.22273-0.22945 10.583 10.583 0 0 0-0.22945-0.22273 10.583 10.583 0 0 0-0.23565-0.21549 10.583 10.583 0 0 0-0.24288-0.20826 10.583 10.583 0 0 0-0.24857-0.20102 10.583 10.583 0 0 0-0.25477-0.19327 10.583 10.583 0 0 0-0.25994-0.18604 10.583 10.583 0 0 0-0.26614-0.17725 10.583 10.583 0 0 0-0.27079-0.1695 10.583 10.583 0 0 0-0.27596-0.16123 10.583 10.583 0 0 0-0.28112-0.15296 10.583 10.583 0 0 0-0.28526-0.14418 10.583 10.583 0 0 0-0.28939-0.13591 10.583 10.583 0 0 0-0.29352-0.12661 10.583 10.583 0 0 0-0.29714-0.11782 10.583 10.583 0 0 0-0.30076-0.10904 10.583 10.583 0 0 0-0.30334-0.09922 10.583 10.583 0 0 0-0.30696-0.090951 10.583 10.583 0 0 0-0.30903-0.081133 10.583 10.583 0 0 0-0.31161-0.071831 10.583 10.583 0 0 0-0.31368-0.062012 10.583 10.583 0 0 0-0.31523-0.053227 10.583 10.583 0 0 0-0.31678-0.042892 10.583 10.583 0 0 0-0.31781-0.034107 10.583 10.583 0 0 0-0.31885-0.023771 10.583 10.583 0 0 0-0.31936-0.01447 10.583 10.583 0 0 0-0.31936-0.00517zm0 6.3501a4.2334 4.2334 0 0 1 0.33228 0.01292 4.2334 4.2334 0 0 1 0.3297 0.03927 4.2334 4.2334 0 0 1 0.32608 0.0646 4.2334 4.2334 0 0 1 0.31988 0.09044 4.2334 4.2334 0 0 1 0.31213 0.11524 4.2334 4.2334 0 0 1 0.30179 0.13901 4.2334 4.2334 0 0 1 0.28991 0.16227 4.2334 4.2334 0 0 1 0.27647 0.185 4.2334 4.2334 0 0 1 0.26097 0.20567 4.2334 4.2334 0 0 1 0.24392 0.22583 4.2334 4.2334 0 0 1 0.22583 0.24392 4.2334 4.2334 0 0 1 0.20567 0.26097 4.2334 4.2334 0 0 1 0.185 0.27647 4.2334 4.2334 0 0 1 0.16227 0.28991 4.2334 4.2334 0 0 1 0.13901 0.30179 4.2334 4.2334 0 0 1 0.11524 0.31213 4.2334 4.2334 0 0 1 0.08992 0.31988 4.2334 4.2334 0 0 1 0.06511 0.32608 4.2334 4.2334 0 0 1 0.03928 0.3297 4.2334 4.2334 0 0 1 0.01292 0.33228 4.2334 4.2334 0 0 1-0.10646 0.94207 4.2334 4.2334 0 0 1-0.31264 0.89504 4.2334 4.2334 0 0 1-0.50437 0.80254 4.2334 4.2334 0 0 1-0.67077 0.67025 4.2334 4.2334 0 0 1-0.80254 0.50437 4.2334 4.2334 0 0 1-0.89453 0.31316 4.2334 4.2334 0 0 1-0.94207 0.10594 4.2334 4.2334 0 0 1-0.94207-0.10594 4.2334 4.2334 0 0 1-0.89504-0.31316 4.2334 4.2334 0 0 1-0.80254-0.50437 4.2334 4.2334 0 0 1-0.67025-0.67025 4.2334 4.2334 0 0 1-0.50437-0.80254 4.2334 4.2334 0 0 1-0.31316-0.89504 4.2334 4.2334 0 0 1-0.10594-0.94207 4.2334 4.2334 0 0 1 0.10594-0.94207 4.2334 4.2334 0 0 1 0.31316-0.89453 4.2334 4.2334 0 0 1 0.50437-0.80254 4.2334 4.2334 0 0 1 0.67025-0.67077 4.2334 4.2334 0 0 1 0.80254-0.50437 4.2334 4.2334 0 0 1 0.89504-0.31264 4.2334 4.2334 0 0 1 0.94207-0.10646z" color="#000000" color-rendering="auto" dominant-baseline="auto" image-rendering="auto" opacity=".5" solid-color="#000000" style="font-feature-settings:normal;font-variant-alternates:normal;font-variant-caps:normal;font-variant-ligatures:normal;font-variant-numeric:normal;font-variant-position:normal;isolation:auto;mix-blend-mode:normal;paint-order:normal;shape-padding:0;text-decoration-color:#000000;text-decoration-line:none;text-decoration-style:solid;text-indent:0;text-orientation:mixed;text-transform:none;white-space:normal"/>
  <path transform="scale(.26459)" d="m64.002 8.0039c-30.833 0-55.998 25.165-55.998 55.996 0 30.833 25.166 55.998 55.998 55.998 30.833 0 55.996-25.166 55.996-55.998 0-30.833-25.165-55.996-55.996-55.996zm0 15.996a40 40 0 0 1 1.207 0.019531 40 40 0 0 1 1.207 0.054688 40 40 0 0 1 1.2051 0.089843 40 40 0 0 1 1.2012 0.12891 40 40 0 0 1 1.1973 0.16211 40 40 0 0 1 1.1914 0.20117 40 40 0 0 1 1.1855 0.23438 40 40 0 0 1 1.1777 0.27148 40 40 0 0 1 1.168 0.30664 40 40 0 0 1 1.1602 0.34375 40 40 0 0 1 1.1465 0.375 40 40 0 0 1 1.1367 0.41211 40 40 0 0 1 1.123 0.44531 40 40 0 0 1 1.1094 0.47852 40 40 0 0 1 1.0938 0.51367 40 40 0 0 1 1.0781 0.54492 40 40 0 0 1 1.0625 0.57812 40 40 0 0 1 1.043 0.60938 40 40 0 0 1 1.0234 0.64062 40 40 0 0 1 1.0059 0.66992 40 40 0 0 1 0.98242 0.70312 40 40 0 0 1 0.96289 0.73047 40 40 0 0 1 0.93945 0.75977 40 40 0 0 1 0.91797 0.78711 40 40 0 0 1 0.89062 0.81445 40 40 0 0 1 0.86719 0.8418 40 40 0 0 1 0.8418 0.86719 40 40 0 0 1 0.81445 0.89062 40 40 0 0 1 0.78711 0.91797 40 40 0 0 1 0.75976 0.93945 40 40 0 0 1 0.73047 0.96094 40 40 0 0 1 0.70117 0.98438 40 40 0 0 1 0.67188 1.0059 40 40 0 0 1 0.64062 1.0234 40 40 0 0 1 0.60938 1.043 40 40 0 0 1 0.57812 1.0625 40 40 0 0 1 0.54492 1.0781 40 40 0 0 1 0.51172 1.0938 40 40 0 0 1 0.48047 1.1094 40 40 0 0 1 0.44531 1.123 40 40 0 0 1 0.41211 1.1367 40 40 0 0 1 0.375 1.1465 40 40 0 0 1 0.34375 1.1602 40 40 0 0 1 0.30664 1.168 40 40 0 0 1 0.27149 1.1777 40 40 0 0 1 0.23437 1.1855 40 40 0 0 1 0.20118 1.1914 40 40 0 0 1 0.1621 1.1973 40 40 0 0 1 0.12891 1.2012 40 40 0 0 1 0.08984 1.2051 40 40 0 0 1 0.05469 1.207 40 40 0 0 1 0.01953 1.207 40 40 0 0 1-0.15234 3.4863 40 40 0 0 1-0.45508 3.4609 40 40 0 0 1-0.75586 3.4062 40 40 0 0 1-1.0488 3.3281 40 40 0 0 1-1.3359 3.2227 40 40 0 0 1-1.6113 3.0957 40 40 0 0 1-1.875 2.9434 40 40 0 0 1-2.125 2.7676 40 40 0 0 1-2.3574 2.5742 40 40 0 0 1-2.5723 2.3574 40 40 0 0 1-2.7676 2.123 40 40 0 0 1-2.9434 1.875 40 40 0 0 1-3.0957 1.6113 40 40 0 0 1-3.2246 1.3359 40 40 0 0 1-3.3281 1.0488 40 40 0 0 1-3.4062 0.75586 40 40 0 0 1-3.459 0.45508 40 40 0 0 1-3.4863 0.15234 40 40 0 0 1-3.4863-0.15234 40 40 0 0 1-3.4609-0.45508 40 40 0 0 1-3.4062-0.75586 40 40 0 0 1-3.3281-1.0488 40 40 0 0 1-3.2227-1.3359 40 40 0 0 1-3.0957-1.6113 40 40 0 0 1-2.9434-1.875 40 40 0 0 1-2.7695-2.123 40 40 0 0 1-2.5723-2.3574 40 40 0 0 1-2.3574-2.5742 40 40 0 0 1-2.123-2.7676 40 40 0 0 1-1.875-2.9434 40 40 0 0 1-1.6113-3.0957 40 40 0 0 1-1.3359-3.2227 40 40 0 0 1-1.0488-3.3281 40 40 0 0 1-0.75586-3.4062 40 40 0 0 1-0.45508-3.4609 40 40 0 0 1-0.15234-3.4863 40 40 0 0 1 0.15234-3.4863 40 40 0 0 1 0.45508-3.459 40 40 0 0 1 0.75586-3.4062 40 40 0 0 1 1.0488-3.3281 40 40 0 0 1 1.3359-3.2246 40 40 0 0 1 1.6113-3.0957 40 40 0 0 1 1.875-2.9434 40 40 0 0 1 2.123-2.7676 40 40 0 0 1 2.3574-2.5723 40 40 0 0 1 2.5723-2.3574 40 40 0 0 1 2.7695-2.125 40 40 0 0 1 2.9434-1.875 40 40 0 0 1 3.0957-1.6113 40 40 0 0 1 3.2227-1.3359 40 40 0 0 1 3.3281-1.0488 40 40 0 0 1 3.4062-0.75586 40 40 0 0 1 3.4609-0.45508 40 40 0 0 1 3.4863-0.15234z" color="#000000" color-rendering="auto" dominant-baseline="auto" image-rendering="auto" solid-color="#000000" stroke-width="3.7795" style="font-feature-settings:normal;font-variant-alternates:normal;font-variant-caps:normal;font-variant-ligatures:normal;font-variant-numeric:normal;font-variant-position:normal;isolation:auto;mix-blend-mode:normal;paint-order:normal;shape-padding:0;text-decoration-color:#000000;text-decoration-line:none;text-decoration-style:solid;text-indent:0;text-orientation:mixed;text-transform:none;white-space:normal"/>
 </g>
</svg>
