<svg width="128" height="128" version="1.1" viewBox="0 0 33.867 33.867" xmlns="http://www.w3.org/2000/svg">
 <path class="element" d="m16.934 2.1172c-8.158 0-14.816 6.6584-14.816 14.816 0 8.158 6.6584 14.816 14.816 14.816 8.158 0 14.816-6.6584 14.816-14.816 0-8.158-6.6584-14.816-14.816-14.816zm0 4.2324c5.8701 0 10.584 4.7138 10.584 10.584 0 5.8701-4.7138 10.584-10.584 10.584-5.8701 0-10.584-4.7138-10.584-10.584 0-5.8701 4.7138-10.584 10.584-10.584zm4.2333 10.584a4.2334 4.2334 0 0 1-4.2334 4.2334 4.2334 4.2334 0 0 1-4.2334-4.2334 4.2334 4.2334 0 0 1 4.2334-4.2334 4.2334 4.2334 0 0 1 4.2334 4.2334z" style="color-rendering:auto;color:#000000;dominant-baseline:auto;font-feature-settings:normal;font-variant-alternates:normal;font-variant-caps:normal;font-variant-ligatures:normal;font-variant-numeric:normal;font-variant-position:normal;image-rendering:auto;isolation:auto;mix-blend-mode:normal;paint-order:normal;shape-padding:0;shape-rendering:auto;solid-color:#000000;text-decoration-color:#000000;text-decoration-line:none;text-decoration-style:solid;text-indent:0;text-orientation:mixed;text-transform:none;white-space:normal"/>
</svg>
