<svg width="128" height="128" version="1.1" viewBox="0 0 33.867 33.867" xmlns="http://www.w3.org/2000/svg">
 <path d="m21.167 16.934a4.2334 4.2334 0 0 1-4.2334 4.2334 4.2334 4.2334 0 0 1-4.2334-4.2334 4.2334 4.2334 0 0 1 4.2334-4.2334 4.2334 4.2334 0 0 1 4.2334 4.2334zm-17.992 0c0.59621 2.256 2.1093 4.1873 4.0765 5.588 2.5587 1.8218 5.9544 2.8787 9.682 2.8787s7.1232-1.0569 9.682-2.8787c1.9672-1.4007 3.4803-3.332 4.0765-5.588h-3.0159c-0.48857 1.0455-1.342 2.0365-2.5562 2.901-2.0138 1.4339-4.9364 2.3904-8.1864 2.3904s-6.1725-0.95656-8.1864-2.3904c-1.2142-0.8645-2.0676-1.8555-2.5562-2.901zm13.758-8.4668c-3.7276 0-7.1232 1.0569-9.682 2.8787-1.9672 1.4006-3.4803 3.3321-4.0765 5.588h3.0164c0.48861-1.0453 1.3418-2.0361 2.5558-2.9004 2.0138-1.4339 4.9364-2.3904 8.1864-2.3904s6.1725 0.95656 8.1864 2.3904c1.214 0.86437 2.0671 1.8552 2.5558 2.9004h3.0164c-0.59624-2.2559-2.1093-4.1874-4.0765-5.588-2.5587-1.8218-5.9544-2.8787-9.682-2.8787z" style="paint-order:normal"/>
</svg>
